<svg width="198" height="44" fill="none" xmlns="http://www.w3.org/2000/svg"><g clip-path="url(#a)" fill="#fff"><path d="M197.972 20.319a12.244 12.244 0 0 0-2.4-8.156 12.072 12.072 0 0 0-7.112-4.582 12 12 0 0 0-8.353 1.23 12.147 12.147 0 0 0-5.515 6.44 6.765 6.765 0 0 1-.515-4.432 6.727 6.727 0 0 1 2.353-3.78 6.672 6.672 0 0 1 4.384-1.453 6.68 6.68 0 0 1 4.278 1.746l3.649-4.015a12.033 12.033 0 0 0-7.82-3.175c-2.9-.077-5.732.9-7.976 2.752a12.195 12.195 0 0 0-4.249 7.339 12.262 12.262 0 0 0 1.548 8.351 6.673 6.673 0 0 1-3.816-2.441 6.766 6.766 0 0 1-1.398-4.332 6.755 6.755 0 0 1 1.659-4.237 6.665 6.665 0 0 1 3.958-2.201L169.808 0a12.062 12.062 0 0 0-7.35 4.177 12.237 12.237 0 0 0-2.845 8.006 12.232 12.232 0 0 0 3.049 7.93 12.051 12.051 0 0 0 7.454 3.985 6.64 6.64 0 0 1-4.177 1.48 6.639 6.639 0 0 1-4.177-1.48 6.767 6.767 0 0 1-2.398-3.976 6.812 6.812 0 0 1 .721-4.596l-4.694-2.697a12.26 12.26 0 0 0-1.345 8.398 12.192 12.192 0 0 0 4.438 7.235 12.018 12.018 0 0 0 8.055 2.542 12.037 12.037 0 0 0 7.74-3.392 6.762 6.762 0 0 1-1.526 4.265 6.668 6.668 0 0 1-3.864 2.322 6.634 6.634 0 0 1-4.449-.676 6.719 6.719 0 0 1-3.014-3.366l-5.029 2.022a12.076 12.076 0 0 0 4.419 5.56 11.931 11.931 0 0 0 6.757 2.088 12.426 12.426 0 0 0 2.744-.31 12.084 12.084 0 0 0 7.089-4.726 12.254 12.254 0 0 0 2.249-8.26 6.736 6.736 0 0 1 2.398 3.867 6.77 6.77 0 0 1-.602 4.52 6.692 6.692 0 0 1-3.324 3.093 6.625 6.625 0 0 1-4.519.245l-1.564 5.215c2.784.857 5.781.672 8.441-.52a12.128 12.128 0 0 0 6.034-5.972 12.264 12.264 0 0 0 .671-8.495 12.167 12.167 0 0 0-5.021-6.859 6.632 6.632 0 0 1 4.49.531 6.704 6.704 0 0 1 3.125 3.292 6.774 6.774 0 0 1 .329 4.544 6.732 6.732 0 0 1-2.618 3.713l3.073 4.506a12.179 12.179 0 0 0 4.896-6.99c.739-2.85.428-5.873-.876-8.51a12.116 12.116 0 0 0-6.214-5.828 11.995 11.995 0 0 0-8.485-.27 6.685 6.685 0 0 1 3.118-3.165 6.608 6.608 0 0 1 4.398-.495 6.699 6.699 0 0 1 3.861 2.547 6.794 6.794 0 0 1 1.314 4.459l5.392.36ZM3.32 17.492v12.727H0V13.888h3.291c.458-.005.91.108 1.312.33.402.22.74.54.985.931l6.706 8.335 6.705-8.335a2.69 2.69 0 0 1 .987-.936 2.666 2.666 0 0 1 1.316-.331h3.341v16.332h-3.32V17.492l-7.7 9.36H11.02l-7.7-9.36ZM50.493 30.22h-3.649l-2.062-4.038H32.841l-2.062 4.037h-3.627l6.633-13.11c1.023-2.033 2.235-3.464 5.03-3.464 2.793 0 3.983 1.43 5.029 3.464l6.65 13.11ZM40.491 17.83a1.838 1.838 0 0 0-.674-.807 1.817 1.817 0 0 0-2.68.807l-2.76 5.316h8.84l-2.726-5.316ZM66.698 27.161c1.99 0 2.627-.62 2.627-1.532 0-1.098-.967-1.644-3.291-1.835l-7.824-.62c-3.671-.287-5.85-1.6-5.85-4.59 0-3.463 2.894-4.68 6.23-4.68h13.177v3.058H58.283c-1.587 0-2.487.428-2.487 1.526 0 .907.615 1.386 3.27 1.6l7.465.597c3.816.315 6.28 1.532 6.28 4.826 0 2.77-1.754 4.73-6.325 4.73H52.293v-3.08h14.405ZM75.818 13.882h13.316c5.806 0 7.824 2.816 7.824 8.166 0 5.35-1.99 8.171-7.824 8.171H75.818V13.882Zm13.316 3.322h-9.93v9.67h9.93c3.862 0 4.337-1.69 4.337-4.826 0-3.137-.475-4.843-4.337-4.843ZM121.193 30.22h-3.649l-2.062-4.038H103.54l-2.062 4.037h-3.626l6.644-13.11c1.022-2.033 2.235-3.464 5.029-3.464s3.984 1.43 5.029 3.464l6.639 13.11ZM111.19 17.83a1.832 1.832 0 0 0-1.676-1.109 1.82 1.82 0 0 0-1.003.302 1.839 1.839 0 0 0-.674.807l-2.782 5.316h8.84l-2.705-5.316ZM123.674 13.882h14.076c3.984 0 6.449 1.819 6.449 5.068 0 2.292-1.213 3.706-3.32 4.325 2.062.67 2.962 2.005 2.962 3.7v3.227h-3.509V26.92c0-.907-.498-2.072-2.655-2.072H127.06v5.372h-3.392l.006-16.337Zm14.35 7.93c2.084 0 2.721-1.386 2.721-2.462 0-1.076-.648-2.455-2.721-2.455h-10.958v4.916h10.958Z"/></g><defs><clipPath id="a"><path fill="#fff" d="M0 0h198v44H0z"/></clipPath></defs></svg>
